<svg width="16" height="16" viewBox="0 0 16 16" fill="none" xmlns="http://www.w3.org/2000/svg">
<path fill-rule="evenodd" clip-rule="evenodd" d="M4.65944 0.048C5.50484 0.00872726 5.77439 0 7.92789 0C10.0814 0 10.3509 0.00945454 11.1956 0.048C12.0403 0.0865454 12.6169 0.222545 13.1214 0.419636C13.6497 0.621091 14.1289 0.936 14.5253 1.34327C14.9289 1.74255 15.2403 2.22545 15.4392 2.75927C15.6352 3.26836 15.7693 3.85018 15.8082 4.70109C15.8471 5.55564 15.8558 5.82764 15.8558 8C15.8558 10.1731 15.8464 10.4451 15.8082 11.2982C15.77 12.1491 15.6352 12.7309 15.4392 13.24C15.2403 13.7739 14.9284 14.2576 14.5253 14.6575C14.1289 15.0647 13.6497 15.3789 13.1214 15.5796C12.6169 15.7775 12.0403 15.9127 11.1971 15.952C10.3509 15.9913 10.0814 16 7.92789 16C5.77439 16 5.50484 15.9905 4.65944 15.952C3.8162 15.9135 3.23962 15.7775 2.73512 15.5796C2.20606 15.3789 1.72671 15.0642 1.33044 14.6575C0.927116 14.2579 0.614999 13.7745 0.415854 13.2407C0.220539 12.7316 0.086486 12.1498 0.0475673 11.2989C0.00864859 10.4444 0 10.1724 0 8C0 5.82691 0.00936931 5.55491 0.0475673 4.70255C0.0857653 3.85018 0.220539 3.26836 0.415854 2.75927C0.615293 2.22551 0.927648 1.74205 1.33116 1.34255C1.72687 0.935637 2.20573 0.620686 2.7344 0.419636C3.2389 0.222545 3.81548 0.0872727 4.65872 0.048H4.65944ZM11.1315 1.488C10.2954 1.44945 10.0446 1.44145 7.92789 1.44145C5.81114 1.44145 5.56033 1.44945 4.7243 1.488C3.95097 1.52364 3.53151 1.65382 3.25188 1.76364C2.88215 1.90909 2.61764 2.08145 2.34017 2.36145C2.07714 2.61967 1.87471 2.93402 1.74774 3.28145C1.63891 3.56364 1.5099 3.98691 1.47459 4.76727C1.43639 5.61091 1.42846 5.864 1.42846 8C1.42846 10.136 1.43639 10.3891 1.47459 11.2327C1.5099 12.0131 1.63891 12.4364 1.74774 12.7185C1.87459 13.0655 2.07711 13.3804 2.34017 13.6385C2.59602 13.904 2.90809 14.1084 3.25188 14.2364C3.53151 14.3462 3.95097 14.4764 4.7243 14.512C5.56033 14.5505 5.81042 14.5585 7.92789 14.5585C10.0454 14.5585 10.2954 14.5505 11.1315 14.512C11.9048 14.4764 12.3243 14.3462 12.6039 14.2364C12.9736 14.0909 13.2381 13.9185 13.5156 13.6385C13.7787 13.3804 13.9812 13.0655 14.108 12.7185C14.2169 12.4364 14.3459 12.0131 14.3812 11.2327C14.4194 10.3891 14.4273 10.136 14.4273 8C14.4273 5.864 14.4194 5.61091 14.3812 4.76727C14.3459 3.98691 14.2169 3.56364 14.108 3.28145C13.9639 2.90836 13.7931 2.64145 13.5156 2.36145C13.2597 2.09605 12.9482 1.89179 12.6039 1.76364C12.3243 1.65382 11.9048 1.52364 11.1315 1.488ZM6.91528 10.4662C7.4808 10.7037 8.1105 10.7358 8.69684 10.5569C9.28318 10.378 9.78978 9.99921 10.1301 9.48527C10.4705 8.97132 10.6234 8.35409 10.5629 7.73899C10.5023 7.12388 10.232 6.54907 9.79815 6.11273C9.52156 5.8338 9.18713 5.62023 8.81893 5.48738C8.45073 5.35453 8.05793 5.30572 7.66879 5.34445C7.27965 5.38318 6.90386 5.50849 6.56847 5.71137C6.23309 5.91424 5.94645 6.18963 5.7292 6.51771C5.51194 6.84579 5.36948 7.21839 5.31206 7.6087C5.25463 7.99901 5.28369 8.3973 5.39712 8.77492C5.51055 9.15254 5.70554 9.50008 5.96806 9.79253C6.23057 10.085 6.55407 10.315 6.91528 10.4662ZM5.04646 5.09236C5.42486 4.71053 5.87407 4.40764 6.36847 4.20099C6.86287 3.99434 7.39276 3.88798 7.92789 3.88798C8.46302 3.88798 8.99291 3.99434 9.4873 4.20099C9.9817 4.40764 10.4309 4.71053 10.8093 5.09236C11.1877 5.4742 11.4879 5.92751 11.6927 6.4264C11.8974 6.92529 12.0028 7.46 12.0028 8C12.0028 8.54 11.8974 9.07471 11.6927 9.5736C11.4879 10.0725 11.1877 10.5258 10.8093 10.9076C10.0451 11.6788 9.00863 12.112 7.92789 12.112C6.84714 12.112 5.81066 11.6788 5.04646 10.9076C4.28226 10.1365 3.85294 9.09058 3.85294 8C3.85294 6.90942 4.28226 5.86352 5.04646 5.09236ZM12.9066 4.50036C13.0004 4.41111 13.0754 4.30377 13.1274 4.18471C13.1793 4.06565 13.207 3.93729 13.2089 3.80722C13.2108 3.67716 13.1868 3.54803 13.1383 3.4275C13.0898 3.30696 13.0179 3.19746 12.9268 3.10548C12.8356 3.0135 12.7271 2.94091 12.6076 2.89201C12.4882 2.84311 12.3602 2.81889 12.2313 2.82079C12.1024 2.82268 11.9752 2.85066 11.8573 2.90305C11.7393 2.95545 11.6329 3.0312 11.5444 3.12582C11.3724 3.30984 11.2782 3.55427 11.2819 3.80722C11.2855 4.06017 11.3867 4.30173 11.564 4.48061C11.7413 4.6595 11.9807 4.76162 12.2313 4.76531C12.482 4.769 12.7242 4.67396 12.9066 4.50036Z" fill="white"/>
</svg>
